<?xml version="1.0"?>
<svg xmlns="http://www.w3.org/2000/svg" height="100px" viewBox="0 0 512 512" width="100px"><path d="m441.726562 79.8125c-2.851562-3.003906-7.597656-3.128906-10.605468-.277344-3.003906 2.851563-3.128906 7.597656-.277344 10.601563 42.664062 44.957031 66.15625 103.859375 66.15625 165.863281 0 132.886719-108.113281 241-241 241s-241-108.113281-241-241 108.113281-241 241-241c56.523438 0 111.464844 19.960938 154.710938 56.207031 3.175781 2.660157 7.90625 2.246094 10.566406-.929687 2.660156-3.175782 2.242187-7.90625-.929688-10.566406-45.941406-38.503907-104.308594-59.710938-164.347656-59.710938-68.378906 0-132.667969 26.628906-181.019531 74.980469-48.351563 48.351562-74.980469 112.640625-74.980469 181.019531s26.628906 132.667969 74.980469 181.019531c48.351562 48.351563 112.640625 74.980469 181.019531 74.980469s132.667969-26.628906 181.019531-74.980469c48.351563-48.351562 74.980469-112.640625 74.980469-181.019531 0-65.859375-24.957031-128.433594-70.273438-176.1875zm0 0" fill="#FFFFFF"/><path d="m256 280.066406c13.269531 0 24.066406-10.796875 24.066406-24.066406s-10.796875-24.066406-24.066406-24.066406c-13.273438 0-24.066406 10.796875-24.066406 24.066406 0 13.273438 10.792968 24.066406 24.066406 24.066406zm0-33.132812c5 0 9.066406 4.066406 9.066406 9.066406s-4.066406 9.066406-9.066406 9.066406-9.066406-4.066406-9.066406-9.066406 4.066406-9.066406 9.066406-9.066406zm0 0" fill="#FFFFFF"/><path d="m106.898438 263.5c4.140624 0 7.5-3.359375 7.5-7.5 0-78.078125 63.523437-141.601562 141.601562-141.601562 4.144531 0 7.5-3.359376 7.5-7.5 0-4.140626-3.355469-7.5-7.5-7.5-86.351562 0-156.601562 70.25-156.601562 156.601562 0 4.140625 3.359374 7.5 7.5 7.5zm0 0" fill="#FFFFFF"/><path d="m256 412.601562c86.351562 0 156.601562-70.25 156.601562-156.601562 0-4.140625-3.359374-7.5-7.5-7.5-4.144531 0-7.5 3.359375-7.5 7.5 0 78.078125-63.523437 141.601562-141.601562 141.601562-4.140625 0-7.5 3.359376-7.5 7.5 0 4.140626 3.359375 7.5 7.5 7.5zm0 0" fill="#FFFFFF"/><path d="m118.007812 90.472656c-2.765624-3.085937-7.503906-3.351562-10.589843-.585937-47.210938 42.253906-74.285157 102.800781-74.285157 166.113281 0 4.140625 3.359376 7.5 7.5 7.5 4.140626 0 7.5-3.359375 7.5-7.5 0-59.050781 25.253907-115.523438 69.289063-154.9375 3.085937-2.761719 3.347656-7.503906.585937-10.589844zm0 0" fill="#FFFFFF"/><path d="m73.765625 263.5c4.144531 0 7.5-3.359375 7.5-7.5 0-69.992188 41.570313-133.054688 105.902344-160.65625 3.804687-1.632812 5.566406-6.042969 3.933593-9.847656-1.632812-3.808594-6.042968-5.566406-9.847656-3.9375-69.851562 29.96875-114.988281 98.441406-114.988281 174.441406 0 4.140625 3.359375 7.5 7.5 7.5zm0 0" fill="#FFFFFF"/><path d="m393.992188 421.527344c1.480468 1.65625 3.53125 2.496094 5.59375 2.496094 1.777343 0 3.566406-.628907 4.996093-1.910157 47.210938-42.253906 74.285157-102.800781 74.285157-166.113281 0-4.144531-3.355469-7.5-7.5-7.5-4.144532 0-7.5 3.355469-7.5 7.5 0 59.050781-25.253907 115.523438-69.289063 154.9375-3.085937 2.761719-3.347656 7.503906-.585937 10.589844zm0 0" fill="#FFFFFF"/><path d="m438.230469 248.5c-4.140625 0-7.5 3.359375-7.5 7.5 0 69.992188-41.566407 133.054688-105.898438 160.65625-3.804687 1.632812-5.566406 6.042969-3.933593 9.847656 1.21875 2.84375 3.984374 4.546875 6.894531 4.546875.984375 0 1.988281-.195312 2.953125-.609375 69.851562-29.96875 114.984375-98.441406 114.984375-174.441406 0-4.140625-3.355469-7.5-7.5-7.5zm0 0" fill="#FFFFFF"/><path d="m256 346.335938c49.808594 0 90.332031-40.523438 90.332031-90.335938s-40.523437-90.332031-90.332031-90.332031-90.335938 40.523437-90.335938 90.332031 40.527344 90.335938 90.335938 90.335938zm0-165.667969c41.539062 0 75.332031 33.792969 75.332031 75.332031s-33.792969 75.335938-75.332031 75.335938-75.335938-33.796876-75.335938-75.335938 33.796876-75.332031 75.335938-75.332031zm0 0" fill="#FFFFFF"/><path d="m256 379.46875c68.078125 0 123.46875-55.390625 123.46875-123.46875s-55.390625-123.46875-123.46875-123.46875-123.46875 55.390625-123.46875 123.46875 55.390625 123.46875 123.46875 123.46875zm0-231.9375c59.808594 0 108.46875 48.660156 108.46875 108.46875s-48.660156 108.46875-108.46875 108.46875-108.46875-48.660156-108.46875-108.46875 48.660156-108.46875 108.46875-108.46875zm0 0" fill="#FFFFFF"/><path d="m297.417969 263.5h16.566406c4.144531 0 7.5-3.359375 7.5-7.5s-3.355469-7.5-7.5-7.5h-16.566406c-4.144531 0-7.5 3.359375-7.5 7.5s3.355469 7.5 7.5 7.5zm0 0" fill="#FFFFFF"/></svg>
